<svg xmlns="http://www.w3.org/2000/svg" width="1024" height="680"><path fill="#484b4f" d="M0 0h1024v680H0z"/><g fill-opacity=".502"><path d="m-62 642 1148-232-84 332z"/><path fill="#7f8186" d="M1086 446 578-62-62 434z"/><path fill="#010a0d" d="m-62 450 88 292 752-288z"/><path fill="#a7917a" d="M862 366 46 286l416 160z"/><path fill="#5a5d62" d="m30-62 1056 96L-34 398z"/><path fill="#00070a" d="m42 742 652-104-756-80z"/><path fill="#575c63" d="M1042 446-62 38 1018-62z"/><path fill="#323637" d="m594 442 328 148-836 12z"/><path fill="#00000d" d="M1018 474 766 742h320z"/><path fill="#e0bb71" d="m190 298 76 60 108-4z"/><path fill="#505461" d="m874 630-172 12 156-88z"/><path fill="#6a7c89" d="m254 442 252-68 212 72z"/><path fill="#0d121c" d="m-50 594-12-168 344 100z"/><path fill="#595f6b" d="m-62 190 1148 208L950 94z"/><path fill="#2f3436" d="M382 590 174 446h732z"/><path fill="#b58c6d" d="m586 370-180 24-92-60z"/><path fill="#616c76" d="m318 334 196-140 344 164z"/><path fill="#595b5e" d="M-58 490 66 74 790-62z"/><path fill="#727a84" d="m786 354 84 88-400-4z"/><path fill="#827165" d="m246 394-16-88L2 290z"/><path fill="#161b20" d="m418 638 344-136 48 108z"/><path fill="#081115" d="M-62 718 58 558l568 104z"/><path fill="#585a5c" d="m330 518-72 32 144-12z"/><path fill="#57595a" d="M1086 294-46-38l984-24z"/><path fill="#bfa373" d="m314 302-96 4 28 60z"/><path fill="#19212a" d="M918 602 706 442h380z"/><path fill="#63656d" d="m490 422-168-64-204 56z"/><path fill="#101423" d="m234 522 128-32 104 36z"/><path fill="#18211e" d="m478 598-540-56 260 104z"/><path fill="#968275" d="m666 394-348-8 256-64z"/><path fill="#00050d" d="m914 586-36 156 208-92z"/><path fill="#54595d" d="m790 526 80 88h-48z"/><path fill="#a87b62" d="m218 394 40-24H154z"/><path fill="#55585f" d="m218 322-280 92 164 32z"/><path fill="#232234" d="m646 654 276-44-172 128z"/><path fill="#3f3e44" d="m174 582-28-28 136-16z"/><path fill="#13171f" d="m926 594-152-84 312-16z"/><path fill="#040c11" d="M462 646 74 710-62 590z"/><path fill="#5c5c5d" d="m606 490 44-12v20z"/><path fill="#585b64" d="M926 446 798 66l288 372z"/><path fill="#2c3235" d="m614 446 204 60 188-60z"/><path fill="#59606b" d="m838 246-508-96-392 164z"/><path fill="#6c737a" d="m618 442 136-56-332 8z"/><path fill="#4e5256" d="m718 626 48 16 48-36z"/><path fill="#1e2323" d="m274 554-20 104-100-88z"/><path fill="#6d7375" d="m534 286 212 64-428-12z"/><path fill="#bfd0b1" d="M270 354v-28l-20-4z"/><path fill="#9a8476" d="m498 390 128-48 132 32z"/><path fill="#626a75" d="M914 446H714l192-104z"/><path fill="#21272b" d="m94 522 240-28-396-64z"/><path fill="#6a757f" d="m174 438 304 4-140-52z"/><path fill="#5c636b" d="m118 446 12-68 232 16z"/><path fill="#7f7469" d="M254 334 74 314l88-28z"/><path fill="#575a5c" d="m234 550 60 4 48-28z"/><path fill="#11131f" d="m614 698 64-68-180-44z"/><path fill="#bc976f" d="m418 370-92-28h152z"/><path fill="#2a2c30" d="m646 646 172 24-248-120z"/><path fill="#080d1a" d="m46 554-108-48 232 24z"/><path fill="#3b3f3b" d="m522 446-108 24 184 12z"/><path fill="#363641" d="m886 614-4-48-80-24z"/><path fill="#797070" d="m734 346 172 28-192 24z"/><path fill="#262b2c" d="M766 518 454 622l-28-140z"/><path fill="#786d60" d="m378 338-60-44-20 40z"/><path fill="#32343e" d="M830 618h-60l36-60z"/><path fill="#5c5d5f" d="m-46 286 44 112 244-44z"/><path fill="#4f5656" d="M-22 242 186 42-62-58z"/><path fill="#10141d" d="m798 650 156-16-244 108z"/><path fill="#5a6570" d="M646 190 302 298l548 24z"/><path fill="#8f7368" d="m130 374 48-8-12 20z"/><path fill="#5e5c5d" d="m282 394 68-32h-84z"/><path fill="#747f84" d="m814 442-336-4 168-48z"/><path fill="#353b3c" d="m246 442 108 48 136-36z"/><path fill="#2b2d2f" d="m306 590-84-4 60-44z"/><path fill="#727677" d="m478 302 148 44-216-4z"/><path fill="#323733" d="m494 538 172-8-48-44z"/><path fill="#363a38" d="m358 570-56-32h108z"/><path fill="#0a1517" d="m98 642 268-56-216 136z"/><path fill="#997b6a" d="m418 354 48 32-144 4z"/><path fill="#384852" d="M58 434h-88l56 16z"/><path fill="#585b62" d="m-2 286 348 12-140-196z"/><path fill="#585c67" d="M1002 314 406 94l388 32z"/><path fill="#232b37" d="m150 446-64 24-84-24z"/><path fill="#191b23" d="m710 570-84 116 160-120z"/><path fill="#b3895d" d="m298 330-76 52 92-28z"/><path fill="#a78565" d="m274 306-88 4 28 16z"/><path fill="#626164" d="m150 342 24-20 52 8z"/><path fill="#6c767c" d="m362 442 304-28-184-32z"/><path fill="#4f5657" d="M1086-22 810 18l276 200z"/><path fill="#c1a166" d="m366 366-84-24 68-4z"/><path fill="#a08162" d="m286 334 32-24-52-4z"/><path fill="#928176" d="m498 338 292 28-172 32z"/><path fill="#30313c" d="m706 642 32 32 100-48z"/><path fill="#58595d" d="m946 346 104 124 36-380z"/><path fill="#181d24" d="m746 494 260 92 20-120z"/><path fill="#373732" d="m122 546-36 20 60-12z"/><path fill="#555a5d" d="m862 614-16-36h-56z"/><path fill="#34383d" d="m730 482-84-12 160-20z"/><path fill="#201d2b" d="m282 682 276 60 116-80z"/><path fill="#0a1016" d="m898 578 172 32-156 44z"/><path fill="#131a20" d="m486 558 72 4-28-20z"/><path fill="#57595b" d="m150 6 632-68 244 244z"/><path fill="#6e7070" d="m398 346 144-40H330z"/><path fill="#494b4d" d="M154 550v20l56-20z"/><path fill="#373b41" d="M794 538v108l32-108z"/><path fill="#232731" d="M878 658v-40l-68-8z"/><path fill="#0c1314" d="m74 610 148 132-96-180z"/><path fill="#a27f69" d="m394 370-72 12 108 12z"/><path fill="#131c1c" d="m594 594-96 48-96-32z"/><path fill="#696d75" d="m586 394 128 4-64 20z"/><path fill="#9c8977" d="m618 358-156-12 28 40z"/><path fill="#0d1221" d="m214 546-68-28 128 12z"/><path fill="#020b14" d="m506 658-220-36 124 60z"/><path fill="#7b6560" d="m294 366-48 16-16-20z"/><path fill="#232425" d="m-10 570 64 8-12-48z"/><path fill="#7d7069" d="m398 386-4-24h-68z"/><path fill="#2d2d29" d="m798 478 48 20-100 16z"/><path fill="#55595d" d="m830 574 12 28 40 8z"/><path fill="#5c616d" d="m874 442 144-8-120-80z"/><path fill="#505153" d="m338 534 44-8-48-4z"/><path fill="#c2bb87" d="m238 350 36 4v-24z"/><path fill="#191e2a" d="m306 522 96-32 68 32z"/><path fill="#6e6966" d="m82 330-44-40 84-4z"/><path fill="#0c141d" d="m1002 542 84-44-196 28z"/><path fill="#4b5056" d="m766 634-48-16-4 16z"/><path fill="#252e20" d="m318 562 104 20 12 40z"/><path fill="#778187" d="m546 442-84-28-80 24z"/><path fill="#060916" d="m838 530 8-16-60 8z"/><path fill="#c2956b" d="m394 366-72-12 76-8z"/><path fill="#b78155" d="m222 346 44 16-32-24z"/><path fill="#465157" d="M-62 250-6-62 42 70z"/><path fill="#7d8488" d="m570 418-56 24h136z"/><path fill="#202424" d="m222 562-80 8 160 40z"/><path fill="#0d111a" d="m662 638-128-36 12 72z"/><path fill="#585b62" d="M862 174H226L362 38z"/><path fill="#272c25" d="m622 578 108 40-116 4z"/><path fill="#292d32" d="m190 494 56 20-104-4z"/><path fill="#010811" d="m46 714 316-92-144 120z"/><path fill="#65696e" d="m290 386 120 40-48-36z"/><path fill="#0c151c" d="m678 570-52 4-8-16z"/><path fill="#252b2e" d="m722 478 16 88-180-8z"/><path fill="#5a5e63" d="m66 330 152 32-132 16z"/><path fill="#352d2f" d="M522 554v44l68-24z"/><path fill="#292c33" d="m850 590-8-40 24 32z"/><path fill="#20252c" d="m1046 446-200 24 8 64z"/><path fill="#0f1d1c" d="m262 614 48-32 104 28z"/><path fill="#ad8064" d="m186 374 32-8 28 16z"/><path fill="#36373f" d="m858 562-52 8-20-44z"/><path fill="#000007" d="m1010 742-52-84-48 16z"/><path fill="#a88a73" d="m666 370-40-12 72-4z"/><path fill="#374447" d="M450 442h80l-20 20z"/><path fill="#5a616d" d="M650 186 314 302l28-116z"/><path fill="#57595a" d="M46 430 34 138l-96 300z"/><path fill="#3f434a" d="m834 630-52-12 44 24z"/><path fill="#252d2d" d="m334 490 168-8-100 32z"/><path fill="#697071" d="m430 370-12 8 24-4z"/><path fill="#384249" d="m126 438-4 20 52-8z"/><path fill="#545656" d="M642 478v20h-24z"/><path fill="#686566" d="m114 342 144 36-108-64z"/><path fill="#151a22" d="m-26 586 132-128-108 8z"/><path fill="#706e6b" d="m442 298-160 24 112 20z"/><path fill="#817674" d="m682 398 64-28-140 16z"/><path fill="#565a5a" d="m794 622-24 12-44-12z"/><path fill="#1d242a" d="m230 530-104-52 212 20z"/><path fill="#2f3432" d="m582 538-72-60 192 52z"/><path fill="#606465" d="m290 530 8 4 12-4z"/><path fill="#171a24" d="m374 666 128 68-264-52z"/><path fill="#191b23" d="m654 574 112 36 32-44z"/><path fill="#666464" d="m302 358-36 16 96 4z"/><path fill="#11141b" d="m582 574 48 80-60 8z"/><path fill="#c0906f" d="m462 370 24 8 28-8z"/><path fill="#7c736b" d="m102 298 124 4-76 28z"/><path fill="#646565" d="m302 538-24 16 24-4z"/><path fill="#565959" d="M438 114 46-30l104 136z"/><path fill="#3b3e3f" d="m306 546 40 12 60-28z"/><path fill="#282c2d" d="m282 542-16 48 40-12z"/><path fill="#202429" d="m138 454-28 36-112-16z"/><path fill="#1c2219" d="m254 630 28 16-36 4z"/><path fill="#02080e" d="m62 674-124-64 164 12z"/><path fill="#161720" d="m918 582-12 52-32-32z"/><path fill="#424f51" d="m114 454-48-20 84 4z"/><path fill="#292b2e" d="m654 482 128-16-96 56z"/><path fill="#6e7274" d="m478 390 100-4-44 20z"/><path fill="#525457" d="m334 554-12-16 12-16z"/><path fill="#0e1120" d="m194 526-56 20 116-8z"/><path fill="#333734" d="m482 450-120 28 236 12z"/><path fill="#264155" d="M782 458h-36l24-12z"/><path fill="#2a2a39" d="m658 646 84-16-40 28z"/><path fill="#23242b" d="m650 682-192-16-56 76z"/><path fill="#475156" d="m1086 206-80-268-20 108z"/><path fill="#3a3c3b" d="m594 478 36-12-80-8z"/><path fill="#1b1e20" d="m50 602-12-44 68 16z"/><path fill="#2f2f2b" d="m354 542-60 28 52-8z"/><path fill="#908276" d="m518 346-88 20 164 8z"/><path fill="#646e76" d="m594 338 96-40-216 4z"/><path fill="#1a1f24" d="m806 570-84-20 36-32z"/><path fill="#727778" d="m510 350 100-28-212-12z"/><path fill="#303133" d="m158 566-36-32 8 20z"/><path fill="#131826" d="m350 522 28-20-80 12z"/><path fill="#0d1219" d="m706 626-28-12 28 24z"/><path fill="#5a5f66" d="m818 574 8 24 16-24z"/><path fill="#444546" d="m618 470 20 16 32-16z"/><path fill="#626b77" d="m226 410-84 16 136 16z"/><path fill="#061219" d="m410 614-88 84 28-88z"/><path fill="#11121e" d="m742 498 20 8 4-20z"/><path fill="#6b757c" d="m418 394-84 44 176-16z"/><path fill="#767676" d="m626 326-64 20 140 8z"/><path fill="#2c312f" d="m534 550 36-80h68z"/><path fill="#25222c" d="m774 742 32-104-244 104z"/><path fill="#2c3131" d="m642 498-84-8-96 56z"/><path fill="#5d646e" d="m630 222 156 140h132z"/><path fill="#363436" d="m562 558-40 16 80-4z"/><path fill="#1f2026" d="m986 570-112-44 8 44z"/><path fill="#636161" d="m-50 282 96 4 68 60z"/><path fill="#babda4" d="m266 326-16 8 8 16z"/><path fill="#0c131d" d="m-2 518 96 36 60-36z"/><path fill="#6e6865" d="m150 306 92 28H142z"/><path fill="#5b616c" d="m58 414 192-28-96 60z"/><path fill="#636b73" d="m802 362-228-40 132-16z"/><path fill="#2f2f3b" d="m758 614 28-24 40 28z"/><path fill="#212022" d="m458 630 48-40 72-8z"/><path fill="#3c3b44" d="m858 582-8-20 36 12z"/><path fill="#595e69" d="m726 134-200 20 384 140z"/><path fill="#927a63" d="m310 314 8 20-52-20z"/><path fill="#737d83" d="m526 446-80-8 100-28z"/><path fill="#151c22" d="m938 550-116 4 100-48z"/><path fill="#1f1e2b" d="m662 646 84 52-144-32z"/><path fill="#676e76" d="m778 434-100-28 148-32z"/><path fill="#a68873" d="m522 386-28-20 72 12z"/><path fill="#bc9672" d="m390 346 24 20 32-20z"/><path fill="#b1896b" d="M330 378h40l4 12z"/><path fill="#86786e" d="m422 362 4 16-40-4z"/><path fill="#2e302c" d="m434 590-60-48 12 44z"/><path fill="#272e29" d="m246 506 88-32H194z"/><path fill="#55595c" d="M238-58-22 238l104 52z"/><path fill="#494c50" d="m294 538-36 16-32-8z"/><path fill="#595b63" d="m242 150-36 152-160-32z"/><path fill="#595b64" d="m990 262 4 176-104-252z"/><path fill="#5a5f6b" d="m922 374-36-120-224-68z"/><path fill="#060b14" d="m922 678-84-20 72-8z"/><path fill="#0e1717" d="m118 658 28-76 4 104z"/><path fill="#0d181b" d="m954 642-88 4 60-28z"/><path fill="#27242e" d="m374 670-36 12 108 56z"/><path fill="#2a2f28" d="m618 618 24-24 76 8z"/><path fill="#6a6869" d="m898 386 52-12-100-12z"/><path fill="#be9a67" d="m214 318 24 12v-12z"/><path fill="#181e23" d="m778 574-28 16h52z"/><path fill="#00020c" d="m1086 742-92-108 92 28z"/><path fill="#aa8766" d="m242 302 28 16-48-8z"/><path fill="#2d3134" d="m810 478-44-24-84 40z"/><path fill="#0f1918" d="m346 570-36 24 32 28z"/></g></svg>